<?xml version="1.0" standalone="no"?>
<!DOCTYPE svg PUBLIC "-//W3C//DTD SVG 20010904//EN"
        "http://www.w3.org/TR/2001/REC-SVG-20010904/DTD/svg10.dtd">
<svg version="1.0" xmlns="http://www.w3.org/2000/svg"
     width="784.000000pt" height="784.000000pt" viewBox="0 0 784.000000 784.000000"
     preserveAspectRatio="xMidYMid meet">

    <g transform="translate(0.000000,784.000000) scale(0.100000,-0.100000)"
       fill="#000000" stroke="none">
        <path d="M4005 7703 c-11 -3 -24 -9 -30 -13 -25 -19 -169 -60 -179 -50 -5 5
-19 10 -30 10 -25 0 -166 -69 -166 -81 0 -5 -5 -9 -10 -9 -6 0 -23 -11 -38
-25 -67 -62 -94 -41 -59 47 14 34 28 74 32 86 6 21 5 23 -13 13 -26 -14 -126
-112 -175 -171 -46 -55 -124 -184 -162 -265 -46 -100 -53 -118 -75 -174 -34
-89 -165 -266 -291 -396 -33 -33 -59 -64 -59 -68 0 -11 68 -8 75 3 8 12 25 13
43 1 11 -7 4 -33 -33 -127 -26 -65 -67 -158 -91 -206 -56 -112 -76 -120 -138
-59 -58 57 -74 53 -41 -8 15 -27 24 -54 21 -60 -12 -18 -49 -12 -86 13 -19 13
-50 27 -67 30 -18 4 -35 12 -38 17 -10 16 -127 9 -180 -10 -103 -38 -114 -43
-119 -57 -3 -8 -12 -14 -21 -14 -8 0 -15 -4 -15 -10 0 -12 5 -13 28 -1 33 18
101 34 116 28 19 -7 11 -34 -12 -42 -23 -7 -150 -94 -263 -182 -182 -139 -392
-383 -365 -425 8 -13 6 -25 -7 -50 -24 -46 -108 -185 -194 -323 -40 -63 -73
-118 -73 -123 0 -4 -20 -47 -45 -97 -28 -57 -41 -93 -35 -99 16 -16 11 -57
-14 -126 -13 -36 -35 -101 -49 -145 -13 -44 -41 -134 -61 -200 -20 -66 -42
-138 -48 -160 -6 -22 -21 -71 -35 -110 -13 -38 -29 -88 -34 -110 -5 -22 -15
-56 -23 -75 -7 -19 -19 -53 -26 -75 -7 -22 -30 -80 -52 -130 -22 -49 -47 -106
-55 -125 -8 -19 -21 -51 -30 -69 -8 -19 -17 -75 -20 -123 l-6 -88 27 0 c31 0
34 -5 46 -96 13 -100 21 -137 32 -151 13 -16 28 -7 28 17 0 10 4 21 10 25 13
8 40 -48 40 -85 0 -27 -3 -30 -30 -30 -17 0 -33 7 -38 17 -9 15 -12 15 -34 1
-16 -11 -61 -19 -126 -23 -57 -4 -105 -12 -108 -16 -3 -5 -14 -9 -26 -9 -11 0
-36 -8 -55 -17 l-36 -17 22 -17 c11 -9 21 -21 21 -25 0 -4 -25 -29 -55 -56
-106 -95 -208 -277 -134 -237 23 12 49 6 49 -12 0 -6 -6 -25 -14 -42 -16 -33
-23 -98 -32 -257 -6 -119 12 -215 42 -215 17 0 20 -10 25 -90 7 -117 19 -142
67 -141 36 1 37 -1 94 -99 48 -83 57 -106 53 -133 -5 -24 -2 -34 10 -38 11 -5
15 -14 11 -29 -4 -17 0 -25 19 -33 26 -12 34 -42 12 -42 -17 0 -47 32 -47 49
0 10 -10 11 -36 6 -22 -4 -34 -3 -30 3 7 12 -22 24 -36 16 -16 -10 -189 -11
-194 -2 -3 4 -16 8 -30 8 -16 0 -28 8 -34 23 l-9 22 0 -25 c-1 -18 -4 -21 -13
-12 -8 8 -14 5 -25 -15 -17 -32 -18 -26 18 -68 28 -31 30 -39 21 -60 -7 -14
-16 -25 -22 -25 -5 0 -2 -9 7 -19 9 -11 20 -18 24 -16 4 3 12 -2 19 -10 7 -8
19 -15 26 -15 18 0 48 -46 39 -60 -8 -13 -86 -3 -123 16 -18 9 -29 10 -42 1
-14 -8 -24 -7 -43 6 -31 20 -35 16 -43 -56 -8 -65 8 -100 50 -111 87 -22 90
-34 21 -86 -37 -28 -75 -87 -79 -122 -1 -3 -4 -10 -8 -14 -5 -4 -8 -16 -8 -26
0 -10 -4 -18 -10 -18 -5 0 -10 -25 -10 -55 0 -45 4 -58 25 -80 14 -14 34 -25
44 -25 36 0 45 -26 25 -67 -10 -21 -17 -49 -16 -63 1 -13 -5 -40 -14 -59 -12
-26 -15 -49 -10 -94 10 -97 14 -100 152 -115 66 -7 142 -12 170 -12 47 0 53 3
82 39 30 37 33 39 154 60 68 13 130 25 138 28 8 3 56 11 105 19 129 19 205 32
245 43 19 6 87 20 150 31 239 45 392 79 405 91 18 17 62 10 68 -11 3 -11 2
-22 -3 -25 -13 -8 -19 -76 -9 -99 14 -31 70 -56 123 -56 50 0 131 32 140 56 3
9 6 54 6 100 0 69 3 86 16 91 29 11 41 -22 48 -129 4 -56 12 -110 17 -120 20
-38 88 -61 179 -62 78 -1 90 2 148 33 l63 34 38 -18 c63 -28 219 -11 316 36
16 8 39 30 51 49 44 70 61 82 103 75 87 -15 291 90 291 150 0 18 -48 94 -91
144 -9 9 -9 18 -2 30 8 13 34 16 151 19 158 3 176 -2 264 -65 29 -21 78 -51
108 -66 30 -16 69 -37 86 -47 79 -46 334 -69 517 -47 59 8 72 13 102 44 19 20
35 43 35 52 0 9 11 29 23 45 l24 29 102 -11 c56 -7 128 -12 161 -12 90 0 104
-9 150 -97 62 -119 139 -233 231 -342 82 -97 102 -112 151 -118 23 -4 70 -23
103 -43 184 -111 198 -109 400 40 22 17 95 64 163 106 103 64 128 75 153 70
27 -5 31 -2 51 39 22 45 32 53 43 35 3 -5 12 -7 20 -3 11 4 15 -3 15 -28 l0
-33 18 23 c117 156 242 265 383 336 30 15 66 36 81 46 14 11 37 19 51 19 16 0
55 23 104 62 43 34 80 65 83 68 3 4 32 29 65 55 33 26 86 73 118 103 52 49 59
53 71 37 11 -15 13 -15 25 -1 8 9 22 16 31 16 10 0 43 28 73 63 51 58 177 238
177 252 0 3 11 21 25 39 23 30 30 33 69 31 41 -3 44 -1 59 33 34 81 44 109 52
147 10 50 9 45 30 139 14 64 17 106 12 215 -8 173 -20 222 -89 371 -33 71 -54
99 -126 170 -90 88 -153 128 -256 161 -74 24 -206 25 -271 3 -45 -15 -99 -12
-110 6 -3 4 25 36 62 69 65 61 67 62 116 57 44 -4 50 -1 65 23 41 65 67 91 89
91 13 0 26 7 30 16 8 22 -13 217 -37 335 -20 97 -59 229 -85 286 -8 17 -15 35
-15 41 0 5 -7 23 -15 38 -8 16 -15 36 -15 44 0 9 -4 20 -9 25 -5 6 -19 42 -31
80 -12 39 -26 78 -31 87 -5 10 -9 23 -9 29 0 6 -6 25 -14 42 -8 18 -23 59 -34
92 -18 53 -31 87 -61 160 -5 11 -23 56 -41 100 -29 72 -69 167 -105 250 -18
41 -20 56 -12 82 10 29 -68 178 -198 378 -18 28 -67 103 -109 167 -42 65 -76
125 -76 133 0 9 9 19 20 23 21 8 19 10 -55 118 -103 150 -249 314 -324 362
-27 18 -226 164 -249 183 -21 17 3 36 63 50 75 18 75 18 75 27 0 18 -121 42
-208 42 -75 0 -98 -4 -161 -31 -41 -17 -90 -40 -109 -51 -50 -28 -76 -21 -80
20 -2 18 2 40 9 48 10 12 6 14 -24 14 -29 0 -38 6 -54 33 -45 77 -107 236
-114 292 -4 33 -15 92 -23 130 -9 39 -21 88 -26 110 -5 22 -20 77 -35 123 -22
71 -29 82 -49 82 -25 0 -58 31 -90 84 -12 19 -34 50 -50 70 -38 48 -30 70 24
63 22 -3 40 -1 40 3 0 5 -26 32 -57 60 -54 48 -57 52 -39 65 20 15 78 24 201
30 44 2 82 4 84 4 2 1 -2 8 -9 17 -15 18 -137 76 -196 94 -21 6 -61 18 -89 27
-66 20 -125 31 -270 49 -145 18 -195 31 -195 48 0 21 116 66 170 66 14 0 35 7
46 15 17 14 8 15 -101 11 -140 -5 -308 -21 -323 -30 -15 -9 -162 -46 -184 -46
-22 0 -24 23 -2 40 8 8 20 22 25 32 10 19 -1 22 -46 11z m-189 -1332 c40 -23
104 -105 104 -134 0 -27 -18 -29 -42 -4 -15 16 -45 29 -84 37 -59 12 -102 11
-276 -6 -84 -8 -90 7 -23 61 90 74 235 94 321 46z m682 0 c55 -17 141 -74 142
-94 0 -5 10 -17 23 -27 34 -28 10 -37 -33 -12 -21 12 -51 22 -65 22 -15 0 -36
5 -47 11 -27 15 -205 14 -243 -1 -26 -10 -32 -9 -47 10 -31 38 8 86 82 101 64
12 127 9 188 -10z m-1096 -203 c-15 -15 -26 -4 -18 18 5 13 9 15 18 6 9 -9 9
-15 0 -24z m303 12 c28 -31 10 -74 -31 -78 -24 -2 -33 2 -42 23 -25 55 33 99
73 55z m776 10 c22 -12 26 -59 7 -78 -7 -7 -21 -12 -33 -12 -46 0 -62 57 -23
84 27 19 24 19 49 6z m-536 -114 c-8 -89 -36 -158 -85 -213 -21 -25 -37 -50
-35 -56 8 -22 -10 -32 -90 -51 -188 -44 -304 -18 -356 81 -21 38 -28 69 -34
146 -5 69 -4 97 4 97 6 0 11 -5 11 -11 0 -8 5 -8 15 1 10 8 15 9 15 2 0 -6 6
-9 13 -6 9 3 17 -11 25 -47 16 -67 69 -132 130 -160 63 -29 160 -23 218 14 84
52 156 178 156 267 -1 47 1 51 9 30 6 -15 8 -54 4 -94z m789 48 c2 -11 -2 -22
-8 -26 -7 -5 -4 -8 6 -8 15 0 18 -9 17 -52 0 -29 -7 -86 -16 -125 -14 -62 -22
-79 -60 -118 -50 -50 -101 -70 -178 -67 -27 1 -64 -1 -82 -4 -30 -4 -32 -6
-22 -32 6 -14 13 -29 17 -32 4 -3 20 -25 36 -50 16 -25 49 -65 73 -90 106
-111 234 -247 252 -272 20 -24 40 -88 29 -88 -3 0 -25 16 -49 35 -47 38 -90
45 -124 21 -34 -23 -132 -28 -197 -10 -32 9 -58 20 -58 24 0 4 -44 22 -97 40
-85 28 -112 33 -198 33 -114 0 -198 -19 -287 -64 -86 -44 -194 -51 -324 -24
-29 6 -74 -9 -108 -36 -6 -5 -26 -20 -43 -35 -34 -27 -43 -60 -21 -82 9 -9 20
-6 48 9 35 20 39 20 68 5 17 -9 37 -16 44 -16 18 -1 74 -48 66 -55 -4 -4 -33
-9 -67 -12 -49 -5 -67 -2 -101 16 -23 12 -45 19 -50 16 -5 -3 -16 2 -25 11
-37 37 26 181 124 284 28 30 51 57 51 62 0 4 6 8 13 8 6 1 41 37 77 82 36 44
76 93 90 108 38 43 101 118 115 137 12 16 14 14 27 -17 15 -35 29 -45 98 -70
82 -29 118 -34 160 -20 31 10 43 11 52 2 18 -18 73 -14 126 7 26 11 61 24 77
29 36 11 60 49 52 83 -8 29 -57 59 -98 59 -31 0 -39 14 -13 24 20 8 11 36 -32
98 -30 44 -65 136 -64 170 1 7 6 23 13 36 13 22 13 21 35 -23 12 -25 22 -59
22 -74 0 -16 4 -31 9 -33 5 -1 27 -25 48 -53 78 -98 195 -124 298 -65 61 35
101 80 111 124 3 17 13 38 20 47 8 9 17 40 21 68 6 50 21 58 27 15z m-1996 3
c2 -10 -3 -17 -12 -17 -18 0 -29 16 -21 31 9 14 29 6 33 -14z m1462 -347 c0
-5 -6 -10 -13 -10 -7 0 -28 -13 -47 -30 -19 -16 -39 -29 -44 -30 -5 0 -14 -8
-21 -17 -12 -16 -15 -15 -49 7 -44 30 -46 45 -6 37 17 -4 30 -2 30 3 0 6 12
10 28 10 15 0 43 9 62 19 39 22 60 26 60 11z m577 -712 c49 -46 15 -77 -97
-85 -36 -3 -76 -13 -90 -22 -19 -12 -51 -16 -141 -16 -108 0 -118 -2 -155 -26
-47 -33 -150 -59 -228 -59 -58 0 -188 28 -260 56 -22 8 -82 24 -134 35 -64 13
-102 26 -114 39 -18 19 -18 20 -1 26 10 3 29 10 43 15 53 18 182 13 270 -11
131 -36 249 -34 367 8 50 17 104 32 120 32 23 0 128 -26 235 -57 10 -3 27 6
43 23 33 36 75 62 99 63 11 1 30 -9 43 -21z m-877 -3383 c0 -8 -5 -15 -11 -15
-7 0 -9 -9 -5 -23 9 -38 -37 -95 -61 -75 -7 6 -13 7 -13 2 0 -5 -13 6 -30 24
-16 18 -30 37 -30 41 0 17 32 34 83 47 68 16 67 16 67 -1z m-2784 -44 c44 -24
46 -35 9 -41 -19 -3 -33 -15 -44 -37 -9 -18 -22 -33 -29 -33 -7 0 -18 -11 -24
-25 -6 -14 -14 -25 -17 -25 -4 0 -33 -25 -66 -55 -33 -30 -65 -55 -71 -55 -6
0 -19 -9 -29 -20 -25 -27 -91 -60 -121 -60 -24 0 -26 3 -22 33 8 58 24 87 46
87 5 0 17 9 27 20 10 11 24 20 32 20 8 0 12 4 8 9 -3 5 -1 12 4 16 6 3 25 33
42 66 18 32 50 76 72 95 38 35 42 36 94 30 29 -3 69 -15 89 -25z m114 -86 c0
-15 -41 -2 -50 16 -11 20 -11 20 19 4 17 -8 31 -18 31 -20z m2840 -59 c-10
-29 -30 -43 -30 -23 0 8 -10 21 -22 29 -21 14 -21 14 13 36 33 21 34 21 41 1
4 -10 3 -30 -2 -43z m-2810 29 c17 -21 5 -31 -15 -12 -8 9 -15 18 -15 21 0 11
18 6 30 -9z m1435 -16 c24 -11 49 -27 56 -35 6 -8 18 -14 27 -14 16 0 62 -45
62 -61 0 -5 -4 -9 -10 -9 -5 0 -9 -5 -7 -11 1 -6 -28 -27 -64 -47 -37 -21 -76
-45 -87 -55 -11 -10 -22 -15 -25 -10 -10 18 -12 263 -2 263 3 0 25 -9 50 -21z
m-1329 -66 c27 -20 51 -39 54 -43 3 -3 22 -14 43 -25 20 -11 37 -25 37 -32 0
-20 -178 86 -199 119 -19 31 11 22 65 -19z m2123 20 c-3 -21 2 -33 16 -33 8 0
15 -2 15 -4 0 -9 -27 -55 -31 -52 -2 2 -4 -11 -5 -30 -1 -40 -22 -84 -40 -84
-7 0 -19 -9 -27 -20 -10 -15 -29 -21 -71 -25 -31 -2 -56 0 -56 4 0 4 11 23 25
42 13 19 36 52 51 73 25 37 113 136 120 136 2 0 3 -3 3 -7z m-1339 -161 c14
-20 31 -50 38 -67 7 -16 17 -32 22 -35 16 -10 17 -55 1 -52 -8 2 -37 5 -65 8
-65 6 -86 28 -80 80 3 21 10 42 17 47 9 7 9 10 0 14 -7 2 -13 20 -13 39 l0 35
28 -16 c15 -9 38 -33 52 -53z m314 2 c81 -52 82 -54 55 -76 -13 -10 -35 -17
-49 -16 -14 1 -31 -1 -38 -6 -24 -15 -43 18 -49 83 -7 71 -6 71 81 15z m2749
10 l34 -16 -19 -39 c-12 -26 -25 -39 -38 -39 -11 0 -20 5 -20 11 0 8 -4 8 -14
0 -8 -6 -18 -11 -22 -10 -31 5 -46 -2 -41 -21 3 -13 0 -20 -9 -20 -8 0 -14 -4
-14 -8 0 -16 -110 -40 -142 -32 -16 5 -36 6 -44 3 -8 -3 -14 1 -14 11 0 9 6
16 13 16 8 0 7 4 -3 10 -27 17 4 44 76 65 38 11 92 33 119 48 29 16 60 27 72
24 13 -2 23 0 23 4 0 12 4 11 43 -7z m-3345 -27 c5 -24 -15 -21 -21 4 -3 13
-1 19 6 16 7 -2 13 -11 15 -20z m-1682 -426 c25 -7 43 -19 41 -25 -5 -15 -25
-14 -74 7 -44 17 -53 33 -30 56 10 10 13 9 15 -6 2 -13 18 -23 48 -32z m-76
-21 c0 -5 -4 -10 -10 -10 -5 0 -10 5 -10 10 0 6 5 10 10 10 6 0 10 -4 10 -10z
m2986 -43 c8 3 14 1 14 -5 0 -13 -38 -23 -46 -11 -3 5 -2 14 2 21 6 9 9 9 11
1 3 -7 11 -9 19 -6z m-226 -94 c0 -37 -25 -27 -49 19 -7 15 -10 35 -7 45 7 16
10 15 32 -12 13 -16 24 -40 24 -52z m-410 -43 c0 -10 -7 -23 -16 -31 -13 -10
-17 -10 -25 2 -12 19 -11 33 2 46 15 15 39 5 39 -17z m-2273 -222 c-3 -8 -6
-5 -6 6 -1 11 2 17 5 13 3 -3 4 -12 1 -19z"/>
        <path d="M3390 6031 c0 -6 5 -13 10 -16 6 -3 10 1 10 9 0 9 -4 16 -10 16 -5 0
-10 -4 -10 -9z"/>
        <path d="M170 1255 c0 -8 2 -15 4 -15 2 0 6 7 10 15 3 8 1 15 -4 15 -6 0 -10
-7 -10 -15z"/>
        <path d="M310 1246 c0 -18 4 -24 15 -20 8 4 15 8 15 11 0 2 -7 11 -15 19 -13
14 -15 13 -15 -10z"/>
    </g>
</svg>
